<svg version="1.1" viewBox="0.0 0.0 827.0 512.0" fill="none" stroke="none" stroke-linecap="square" stroke-miterlimit="10" width="827" height="512" xmlns:xlink="http://www.w3.org/1999/xlink" xmlns="http://www.w3.org/2000/svg"><path fill="#ffffff" d="M0 0L827.0 0L827.0 512.0L0 512.0L0 0Z" fill-rule="nonzero"/><path fill="#4285f4" d="M413.5 25.6C513.3153 25.6 601.7788 89.87247 632.6234 184.80249C663.4681 279.7325 629.67804 383.72754 548.9257 442.39752L413.5 256.0Z" fill-rule="nonzero"/><path fill="#ea4335" d="M548.9257 442.39752C509.56244 470.9966 462.1557 486.4 413.5 486.4L413.5 256.0Z" fill-rule="nonzero"/><path fill="#ff6d01" d="M342.3025 36.87658C365.29633 29.405424 389.32285 25.6 413.5 25.6L413.5 256.0Z" fill-rule="nonzero"/><path fill="#34a853" d="M183.1 256.0C183.1 156.18466 247.37247 67.721214 342.3025 36.87658L413.5 256.0Z" fill-rule="nonzero"/><path fill="#fbbc04" d="M413.5 486.4C286.2536 486.4 183.1 383.2464 183.1 256.0L413.5 256.0Z" fill-rule="nonzero"/><path fill="#1a1a1a" d="M26.5375 36.6L26.5375 28.006248L30.35 28.006248Q31.50625 28.006248 32.1 28.240623Q32.69375 28.474998 33.053123 29.068748Q33.4125 29.646873 33.4125 30.349998Q33.4125 31.271873 32.81875 31.896873Q32.225 32.521873 30.990625 32.69375Q31.44375 32.9125 31.678125 33.115623Q32.178123 33.56875 32.615623 34.25625L34.115623 36.6L32.678123 36.6L31.553125 34.81875Q31.053125 34.0375 30.725 33.63125Q30.4125 33.225 30.146875 33.06875Q29.896875 32.896873 29.63125 32.81875Q29.44375 32.7875 29.00625 32.7875L27.678125 32.7875L27.678125 36.6L26.5375 36.6ZM27.678125 31.803123L30.13125 31.803123Q30.896875 31.803123 31.334375 31.646873Q31.7875 31.474998 32.00625 31.131248Q32.240623 30.771873 32.240623 30.349998Q32.240623 29.740623 31.7875 29.349998Q31.35 28.959373 30.396875 28.959373L27.678125 28.959373L27.678125 31.803123ZM39.646873 34.6L40.740623 34.725Q40.490623 35.678123 39.7875 36.209373Q39.084373 36.740623 38.00625 36.740623Q36.646873 36.740623 35.834373 35.896873Q35.0375 35.053123 35.0375 33.5375Q35.0375 31.974998 35.85 31.115623Q36.6625 30.240623 37.94375 30.240623Q39.19375 30.240623 39.975 31.084373Q40.771873 31.928123 40.771873 33.475Q40.771873 33.56875 40.771873 33.75625L36.13125 33.75625Q36.19375 34.7875 36.709373 35.334373Q37.225 35.865623 38.00625 35.865623Q38.584373 35.865623 38.990623 35.56875Q39.4125 35.25625 39.646873 34.6ZM36.19375 32.896873L39.6625 32.896873Q39.6 32.1 39.271873 31.709373Q38.75625 31.099998 37.959373 31.099998Q37.225 31.099998 36.725 31.584373Q36.240623 32.06875 36.19375 32.896873ZM42.396873 36.6L42.396873 30.381248L43.334373 30.381248L43.334373 31.256248Q43.63125 30.787498 44.115623 30.521873Q44.6 30.240623 45.225 30.240623Q45.9125 30.240623 46.35 30.521873Q46.803123 30.803123 46.975 31.318748Q47.725 30.240623 48.896873 30.240623Q49.834373 30.240623 50.31875 30.756248Q50.81875 31.256248 50.81875 32.334373L50.81875 36.6L49.771873 36.6L49.771873 32.678123Q49.771873 32.053123 49.6625 31.771873Q49.56875 31.490623 49.303123 31.318748Q49.0375 31.146873 48.6625 31.146873Q48.00625 31.146873 47.56875 31.584373Q47.146873 32.021873 47.146873 32.990623L47.146873 36.6L46.084373 36.6L46.084373 32.553123Q46.084373 31.849998 45.81875 31.506248Q45.56875 31.146873 44.990623 31.146873Q44.5375 31.146873 44.1625 31.381248Q43.7875 31.615623 43.615623 32.06875Q43.44375 32.521873 43.44375 33.365623L43.44375 36.6L42.396873 36.6ZM57.459373 35.834373Q56.865623 36.334373 56.31875 36.5375Q55.7875 36.740623 55.1625 36.740623Q54.13125 36.740623 53.584373 36.240623Q53.0375 35.740623 53.0375 34.959373Q53.0375 34.50625 53.240623 34.13125Q53.44375 33.740623 53.7875 33.521873Q54.13125 33.2875 54.553123 33.178123Q54.85 33.084373 55.490623 33.00625Q56.75625 32.865623 57.365623 32.646873Q57.365623 32.428123 57.365623 32.38125Q57.365623 31.724998 57.06875 31.459373Q56.6625 31.115623 55.865623 31.115623Q55.13125 31.115623 54.771873 31.381248Q54.4125 31.631248 54.240623 32.2875L53.209373 32.146873Q53.35 31.490623 53.678123 31.084373Q54.00625 30.678123 54.615623 30.459373Q55.225 30.240623 56.021873 30.240623Q56.81875 30.240623 57.31875 30.428123Q57.81875 30.615623 58.053123 30.896873Q58.2875 31.178123 58.38125 31.615623Q58.428123 31.881248 58.428123 32.584373L58.428123 33.990623Q58.428123 35.459373 58.490623 35.85Q58.56875 36.240623 58.771873 36.6L57.6625 36.6Q57.50625 36.271873 57.459373 35.834373ZM57.365623 33.475Q56.7875 33.709373 55.646873 33.88125Q54.990623 33.975 54.725 34.1Q54.459373 34.209373 54.303123 34.428123Q54.1625 34.646873 54.1625 34.928123Q54.1625 35.35 54.475 35.63125Q54.803123 35.9125 55.4125 35.9125Q56.021873 35.9125 56.490623 35.646873Q56.975 35.38125 57.19375 34.9125Q57.365623 34.553123 57.365623 33.865623L57.365623 33.475ZM60.396873 29.224998L60.396873 28.006248L61.459373 28.006248L61.459373 29.224998L60.396873 29.224998ZM60.396873 36.6L60.396873 30.381248L61.459373 30.381248L61.459373 36.6L60.396873 36.6ZM63.396873 36.6L63.396873 30.381248L64.33437 30.381248L64.33437 31.256248Q65.02187 30.240623 66.31875 30.240623Q66.88125 30.240623 67.35 30.443748Q67.83437 30.646873 68.06875 30.974998Q68.30312 31.303123 68.39687 31.740623Q68.44375 32.0375 68.44375 32.771873L68.44375 36.6L67.39687 36.6L67.39687 32.81875Q67.39687 32.1625 67.27187 31.849998Q67.14687 31.537498 66.83437 31.349998Q66.52187 31.146873 66.1 31.146873Q65.42812 31.146873 64.92812 31.584373Q64.44375 32.00625 64.44375 33.19375L64.44375 36.6L63.396873 36.6ZM70.39687 29.224998L70.39687 28.006248L71.45937 28.006248L71.45937 29.224998L70.39687 29.224998ZM70.39687 36.6L70.39687 30.381248L71.45937 30.381248L71.45937 36.6L70.39687 36.6ZM73.39687 36.6L73.39687 30.381248L74.33437 30.381248L74.33437 31.256248Q75.02187 30.240623 76.31875 30.240623Q76.88125 30.240623 77.35 30.443748Q77.83437 30.646873 78.06875 30.974998Q78.30312 31.303123 78.39687 31.740623Q78.44375 32.0375 78.44375 32.771873L78.44375 36.6L77.39687 36.6L77.39687 32.81875Q77.39687 32.1625 77.27187 31.849998Q77.14687 31.537498 76.83437 31.349998Q76.52187 31.146873 76.1 31.146873Q75.42812 31.146873 74.92812 31.584373Q74.44375 32.00625 74.44375 33.19375L74.44375 36.6L73.39687 36.6ZM80.19375 37.115623L81.225 37.271873Q81.2875 37.740623 81.58437 37.959373Q81.975 38.25625 82.64687 38.25625Q83.38125 38.25625 83.77187 37.959373Q84.17812 37.6625 84.31875 37.146873Q84.4125 36.81875 84.39687 35.7875Q83.70937 36.6 82.67812 36.6Q81.39687 36.6 80.69375 35.678123Q79.99062 34.740623 79.99062 33.459373Q79.99062 32.56875 80.30312 31.818748Q80.63125 31.053123 81.24062 30.646873Q81.85 30.240623 82.67812 30.240623Q83.7875 30.240623 84.50625 31.131248L84.50625 30.381248L85.475 30.381248L85.475 35.75625Q85.475 37.209373 85.17812 37.81875Q84.88125 38.428123 84.24062 38.771873Q83.6 39.13125 82.6625 39.13125Q81.55312 39.13125 80.86562 38.63125Q80.17812 38.13125 80.19375 37.115623ZM81.06875 33.38125Q81.06875 34.6 81.55312 35.1625Q82.0375 35.725 82.77187 35.725Q83.50625 35.725 83.99062 35.1625Q84.49062 34.6 84.49062 33.4125Q84.49062 32.271873 83.975 31.693748Q83.475 31.115623 82.75625 31.115623Q82.05312 31.115623 81.55312 31.693748Q81.06875 32.25625 81.06875 33.38125Z" fill-rule="nonzero"/><path fill="#9e9e9e" d="M26.1 51.35L27.209375 51.25625Q27.334375 52.06875 27.771875 52.475Q28.225 52.88125 28.865625 52.88125Q29.615625 52.88125 30.146875 52.303123Q30.678125 51.725 30.678125 50.7875Q30.678125 49.88125 30.1625 49.365623Q29.6625 48.834373 28.834375 48.834373Q28.334375 48.834373 27.9125 49.06875Q27.50625 49.303123 27.271875 49.6625L26.2875 49.5375L27.115625 45.13125L31.396875 45.13125L31.396875 46.13125L27.959375 46.13125L27.50625 48.44375Q28.271875 47.896873 29.115625 47.896873Q30.240625 47.896873 31.00625 48.678123Q31.7875 49.459373 31.7875 50.69375Q31.7875 51.85 31.115625 52.709373Q30.2875 53.740623 28.865625 53.740623Q27.69375 53.740623 26.94375 53.084373Q26.209375 52.428123 26.1 51.35ZM33.6625 53.6L33.6625 52.396873L34.865623 52.396873L34.865623 53.6Q34.865623 54.25625 34.63125 54.6625Q34.396873 55.084373 33.896873 55.303123L33.6 54.85Q33.928123 54.709373 34.084373 54.4125Q34.240623 54.13125 34.271873 53.6L33.6625 53.6ZM36.1 49.365623Q36.1 47.834373 36.4125 46.9125Q36.725 45.975 37.334373 45.475Q37.959373 44.975 38.896873 44.975Q39.584373 44.975 40.1 45.25625Q40.63125 45.5375 40.975 46.06875Q41.31875 46.584373 41.50625 47.334373Q41.69375 48.084373 41.69375 49.365623Q41.69375 50.88125 41.38125 51.803123Q41.084373 52.725 40.459373 53.240623Q39.85 53.740623 38.896873 53.740623Q37.6625 53.740623 36.94375 52.85Q36.1 51.7875 36.1 49.365623ZM37.178123 49.365623Q37.178123 51.475 37.678123 52.178123Q38.178123 52.88125 38.896873 52.88125Q39.63125 52.88125 40.115623 52.178123Q40.615623 51.475 40.615623 49.365623Q40.615623 47.240623 40.115623 46.553123Q39.63125 45.85 38.88125 45.85Q38.1625 45.85 37.725 46.459373Q37.178123 47.240623 37.178123 49.365623ZM43.303123 47.06875Q43.303123 46.146873 43.75625 45.50625Q44.225 44.865623 45.1 44.865623Q45.9125 44.865623 46.44375 45.44375Q46.975 46.021873 46.975 47.13125Q46.975 48.225 46.428123 48.81875Q45.896873 49.396873 45.115623 49.396873Q44.334373 49.396873 43.81875 48.81875Q43.303123 48.240623 43.303123 47.06875ZM45.13125 45.584373Q44.740623 45.584373 44.475 45.928123Q44.225 46.271873 44.225 47.178123Q44.225 48.00625 44.475 48.35Q44.740623 48.678123 45.13125 48.678123Q45.5375 48.678123 45.7875 48.334373Q46.053123 47.990623 46.053123 47.1Q46.053123 46.25625 45.7875 45.928123Q45.521873 45.584373 45.13125 45.584373ZM45.13125 53.9125L49.834373 44.865623L50.69375 44.865623L46.00625 53.9125L45.13125 53.9125ZM48.85 51.584373Q48.85 50.6625 49.303123 50.021873Q49.771873 49.38125 50.6625 49.38125Q51.475 49.38125 52.00625 49.959373Q52.5375 50.521873 52.5375 51.646873Q52.5375 52.740623 51.990623 53.334373Q51.459373 53.9125 50.6625 53.9125Q49.896873 53.9125 49.365623 53.334373Q48.85 52.75625 48.85 51.584373ZM50.69375 50.1Q50.2875 50.1 50.021873 50.44375Q49.771873 50.7875 49.771873 51.69375Q49.771873 52.50625 50.0375 52.85Q50.303123 53.19375 50.69375 53.19375Q51.084373 53.19375 51.35 52.85Q51.615623 52.50625 51.615623 51.6Q51.615623 50.771873 51.35 50.44375Q51.084373 50.1 50.69375 50.1Z" fill-rule="nonzero"/><path stroke="#757575" stroke-width="1.0" stroke-linecap="butt" d="M25.6 41.1L177.1 41.1L379.2596 39.814777" fill-rule="nonzero"/><path fill="#9e9e9e" d="M381.2596 39.814777C381.2596 38.710205 380.3642 37.814777 379.2596 37.814777C378.15506 37.814777 377.2596 38.710205 377.2596 39.814777C377.2596 40.919346 378.15506 41.814777 379.2596 41.814777C380.3642 41.814777 381.2596 40.919346 381.2596 39.814777" fill-rule="nonzero"/><path fill="#1a1a1a" d="M26.521875 122.845566L26.521875 114.251816L29.771875 114.251816Q30.615625 114.251816 31.06875 114.32994Q31.709375 114.439316 32.13125 114.73619Q32.56875 115.033066 32.81875 115.564316Q33.084373 116.095566 33.084373 116.73619Q33.084373 117.82994 32.38125 118.595566Q31.69375 119.345566 29.865625 119.345566L27.6625 119.345566L27.6625 122.845566L26.521875 122.845566ZM27.6625 118.345566L29.88125 118.345566Q30.990625 118.345566 31.44375 117.939316Q31.9125 117.51744 31.9125 116.76744Q31.9125 116.23619 31.63125 115.86119Q31.365625 115.470566 30.928125 115.345566Q30.63125 115.26744 29.865625 115.26744L27.6625 115.26744L27.6625 118.345566ZM38.459373 122.07994Q37.865623 122.57994 37.31875 122.783066Q36.7875 122.98619 36.1625 122.98619Q35.13125 122.98619 34.584373 122.48619Q34.0375 121.98619 34.0375 121.20494Q34.0375 120.751816 34.240623 120.376816Q34.44375 119.98619 34.7875 119.76744Q35.13125 119.533066 35.553123 119.42369Q35.85 119.32994 36.490623 119.251816Q37.75625 119.11119 38.365623 118.89244Q38.365623 118.67369 38.365623 118.626816Q38.365623 117.970566 38.06875 117.70494Q37.6625 117.36119 36.865623 117.36119Q36.13125 117.36119 35.771873 117.626816Q35.4125 117.876816 35.240623 118.533066L34.209373 118.39244Q34.35 117.73619 34.678123 117.32994Q35.00625 116.92369 35.615623 116.70494Q36.225 116.48619 37.021873 116.48619Q37.81875 116.48619 38.31875 116.67369Q38.81875 116.86119 39.053123 117.14244Q39.2875 117.42369 39.38125 117.86119Q39.428123 118.126816 39.428123 118.82994L39.428123 120.23619Q39.428123 121.70494 39.490623 122.095566Q39.56875 122.48619 39.771873 122.845566L38.6625 122.845566Q38.50625 122.51744 38.459373 122.07994ZM38.365623 119.720566Q37.7875 119.95494 36.646873 120.126816Q35.990623 120.220566 35.725 120.345566Q35.459373 120.45494 35.303123 120.67369Q35.1625 120.89244 35.1625 121.17369Q35.1625 121.595566 35.475 121.876816Q35.803123 122.158066 36.4125 122.158066Q37.021873 122.158066 37.490623 121.89244Q37.975 121.626816 38.19375 121.158066Q38.365623 120.79869 38.365623 120.11119L38.365623 119.720566ZM41.396873 115.470566L41.396873 114.251816L42.459373 114.251816L42.459373 115.470566L41.396873 115.470566ZM41.396873 122.845566L41.396873 116.626816L42.459373 116.626816L42.459373 122.845566L41.396873 122.845566ZM44.38125 122.845566L44.38125 116.626816L45.334373 116.626816L45.334373 117.564316Q45.69375 116.908066 45.990623 116.70494Q46.303123 116.48619 46.678123 116.48619Q47.209373 116.48619 47.75625 116.814316L47.396873 117.79869Q47.00625 117.564316 46.63125 117.564316Q46.271873 117.564316 45.990623 117.783066Q45.725 117.98619 45.615623 118.36119Q45.428123 118.92369 45.428123 119.57994L45.428123 122.845566L44.38125 122.845566ZM47.975 120.98619L49.00625 120.82994Q49.1 121.45494 49.490623 121.783066Q49.896873 122.11119 50.63125 122.11119Q51.35 122.11119 51.69375 121.82994Q52.053123 121.533066 52.053123 121.126816Q52.053123 120.76744 51.740623 120.564316Q51.521873 120.42369 50.6625 120.20494Q49.50625 119.908066 49.053123 119.70494Q48.615623 119.48619 48.38125 119.11119Q48.146873 118.73619 48.146873 118.26744Q48.146873 117.86119 48.334373 117.501816Q48.521873 117.14244 48.85 116.908066Q49.1 116.73619 49.521873 116.61119Q49.94375 116.48619 50.44375 116.48619Q51.1625 116.48619 51.709373 116.70494Q52.271873 116.908066 52.5375 117.26744Q52.803123 117.626816 52.896873 118.220566L51.865623 118.36119Q51.803123 117.89244 51.459373 117.626816Q51.13125 117.345566 50.50625 117.345566Q49.7875 117.345566 49.475 117.595566Q49.1625 117.82994 49.1625 118.158066Q49.1625 118.36119 49.2875 118.51744Q49.428123 118.689316 49.69375 118.79869Q49.85 118.86119 50.63125 119.064316Q51.75625 119.376816 52.19375 119.564316Q52.63125 119.751816 52.88125 120.11119Q53.13125 120.470566 53.13125 121.01744Q53.13125 121.54869 52.81875 122.01744Q52.521873 122.470566 51.94375 122.73619Q51.365623 122.98619 50.63125 122.98619Q49.4125 122.98619 48.771873 122.48619Q48.146873 121.970566 47.975 120.98619ZM60.69375 121.908066L60.85 122.82994Q60.396873 122.92369 60.053123 122.92369Q59.475 122.92369 59.1625 122.751816Q58.85 122.564316 58.709373 122.26744Q58.584373 121.970566 58.584373 121.01744L58.584373 117.439316L57.81875 117.439316L57.81875 116.626816L58.584373 116.626816L58.584373 115.07994L59.63125 114.45494L59.63125 116.626816L60.69375 116.626816L60.69375 117.439316L59.63125 117.439316L59.63125 121.07994Q59.63125 121.533066 59.678123 121.658066Q59.740623 121.783066 59.865623 121.86119Q59.990623 121.939316 60.225 121.939316Q60.4125 121.939316 60.69375 121.908066ZM61.38125 122.845566L61.38125 116.626816L62.334373 116.626816L62.334373 117.564316Q62.69375 116.908066 62.990623 116.70494Q63.303123 116.48619 63.678123 116.48619Q64.20937 116.48619 64.75625 116.814316L64.39687 117.79869Q64.00625 117.564316 63.63125 117.564316Q63.271873 117.564316 62.990623 117.783066Q62.725 117.98619 62.615623 118.36119Q62.428123 118.92369 62.428123 119.57994L62.428123 122.845566L61.38125 122.845566ZM69.45937 122.07994Q68.86562 122.57994 68.31875 122.783066Q67.7875 122.98619 67.1625 122.98619Q66.13125 122.98619 65.58437 122.48619Q65.0375 121.98619 65.0375 121.20494Q65.0375 120.751816 65.24062 120.376816Q65.44375 119.98619 65.7875 119.76744Q66.13125 119.533066 66.55312 119.42369Q66.85 119.32994 67.49062 119.251816Q68.75625 119.11119 69.36562 118.89244Q69.36562 118.67369 69.36562 118.626816Q69.36562 117.970566 69.06875 117.70494Q68.6625 117.36119 67.86562 117.36119Q67.13125 117.36119 66.77187 117.626816Q66.4125 117.876816 66.24062 118.533066L65.20937 118.39244Q65.35 117.73619 65.67812 117.32994Q66.00625 116.92369 66.61562 116.70494Q67.225 116.48619 68.02187 116.48619Q68.81875 116.48619 69.31875 116.67369Q69.81875 116.86119 70.05312 117.14244Q70.2875 117.42369 70.38125 117.86119Q70.42812 118.126816 70.42812 118.82994L70.42812 120.23619Q70.42812 121.70494 70.49062 122.095566Q70.56875 122.48619 70.77187 122.845566L69.6625 122.845566Q69.50625 122.51744 69.45937 122.07994ZM69.36562 119.720566Q68.7875 119.95494 67.64687 120.126816Q66.99062 120.220566 66.725 120.345566Q66.45937 120.45494 66.30312 120.67369Q66.1625 120.89244 66.1625 121.17369Q66.1625 121.595566 66.475 121.876816Q66.80312 122.158066 67.4125 122.158066Q68.02187 122.158066 68.49062 121.89244Q68.975 121.626816 69.19375 121.158066Q69.36562 120.79869 69.36562 120.11119L69.36562 119.720566ZM76.42812 122.845566L76.42812 122.064316Q75.83437 122.98619 74.69375 122.98619Q73.94375 122.98619 73.31875 122.57994Q72.69375 122.158066 72.35 121.42369Q72.00625 120.689316 72.00625 119.73619Q72.00625 118.814316 72.31875 118.04869Q72.63125 117.283066 73.25625 116.89244Q73.88125 116.48619 74.64687 116.48619Q75.20937 116.48619 75.64687 116.720566Q76.08437 116.95494 76.36562 117.32994L76.36562 114.251816L77.4125 114.251816L77.4125 122.845566L76.42812 122.845566ZM73.1 119.73619Q73.1 120.939316 73.6 121.533066Q74.1 122.11119 74.7875 122.11119Q75.475 122.11119 75.95937 121.54869Q76.44375 120.98619 76.44375 119.82994Q76.44375 118.54869 75.94375 117.95494Q75.45937 117.36119 74.74062 117.36119Q74.0375 117.36119 73.56875 117.939316Q73.1 118.501816 73.1 119.73619ZM79.39687 115.470566L79.39687 114.251816L80.45937 114.251816L80.45937 115.470566L79.39687 115.470566ZM79.39687 122.845566L79.39687 116.626816L80.45937 116.626816L80.45937 122.845566L79.39687 122.845566ZM82.39687 122.845566L82.39687 116.626816L83.33437 116.626816L83.33437 117.501816Q84.02187 116.48619 85.31875 116.48619Q85.88125 116.48619 86.35 116.689316Q86.83437 116.89244 87.06875 117.220566Q87.30312 117.54869 87.39687 117.98619Q87.44375 118.283066 87.44375 119.01744L87.44375 122.845566L86.39687 122.845566L86.39687 119.064316Q86.39687 118.408066 86.27187 118.095566Q86.14687 117.783066 85.83437 117.595566Q85.52187 117.39244 85.1 117.39244Q84.42812 117.39244 83.92812 117.82994Q83.44375 118.251816 83.44375 119.439316L83.44375 122.845566L82.39687 122.845566ZM89.19375 123.36119L90.225 123.51744Q90.2875 123.98619 90.58437 124.20494Q90.975 124.501816 91.64687 124.501816Q92.38125 124.501816 92.77187 124.20494Q93.17812 123.908066 93.31875 123.39244Q93.4125 123.064316 93.39687 122.033066Q92.70937 122.845566 91.67812 122.845566Q90.39687 122.845566 89.69375 121.92369Q88.99062 120.98619 88.99062 119.70494Q88.99062 118.814316 89.30312 118.064316Q89.63125 117.29869 90.24062 116.89244Q90.85 116.48619 91.67812 116.48619Q92.7875 116.48619 93.50625 117.376816L93.50625 116.626816L94.475 116.626816L94.475 122.001816Q94.475 123.45494 94.17812 124.064316Q93.88125 124.67369 93.24062 125.01744Q92.6 125.376816 91.6625 125.376816Q90.55312 125.376816 89.86562 124.876816Q89.17812 124.376816 89.19375 123.36119ZM90.06875 119.626816Q90.06875 120.845566 90.55312 121.408066Q91.0375 121.970566 91.77187 121.970566Q92.50625 121.970566 92.99062 121.408066Q93.49062 120.845566 93.49062 119.658066Q93.49062 118.51744 92.975 117.939316Q92.475 117.36119 91.75625 117.36119Q91.05312 117.36119 90.55312 117.939316Q90.06875 118.501816 90.06875 119.626816Z" fill-rule="nonzero"/><path fill="#9e9e9e" d="M31.646875 138.82994L31.646875 139.84557L25.959375 139.84557Q25.959375 139.47057 26.084375 139.11119Q26.303125 138.53307 26.771875 137.97057Q27.25625 137.40807 28.1625 136.67369Q29.56875 135.51744 30.053125 134.84557Q30.553125 134.17369 30.553125 133.57994Q30.553125 132.95494 30.1 132.53307Q29.646875 132.09557 28.928125 132.09557Q28.1625 132.09557 27.709375 132.54869Q27.25625 133.00182 27.240625 133.81432L26.1625 133.70494Q26.271875 132.48619 26.990625 131.86119Q27.725 131.22057 28.959375 131.22057Q30.19375 131.22057 30.9125 131.90807Q31.63125 132.59557 31.63125 133.61119Q31.63125 134.12682 31.4125 134.62682Q31.209375 135.11119 30.709375 135.67369Q30.225 136.22057 29.1 137.17369Q28.146875 137.97057 27.865625 138.26744Q27.6 138.54869 27.428125 138.82994L31.646875 138.82994ZM33.1 135.61119Q33.1 134.07994 33.4125 133.15807Q33.725 132.22057 34.334373 131.72057Q34.959373 131.22057 35.896873 131.22057Q36.584373 131.22057 37.1 131.50182Q37.63125 131.78307 37.975 132.31432Q38.31875 132.82994 38.50625 133.57994Q38.69375 134.32994 38.69375 135.61119Q38.69375 137.12682 38.38125 138.04869Q38.084373 138.97057 37.459373 139.48619Q36.85 139.98619 35.896873 139.98619Q34.6625 139.98619 33.94375 139.09557Q33.1 138.03307 33.1 135.61119ZM34.178123 135.61119Q34.178123 137.72057 34.678123 138.42369Q35.178123 139.12682 35.896873 139.12682Q36.63125 139.12682 37.115623 138.42369Q37.615623 137.72057 37.615623 135.61119Q37.615623 133.48619 37.115623 132.79869Q36.63125 132.09557 35.88125 132.09557Q35.1625 132.09557 34.725 132.70494Q34.178123 133.48619 34.178123 135.61119ZM40.6625 139.84557L40.6625 138.64244L41.865623 138.64244L41.865623 139.84557Q41.865623 140.50182 41.63125 140.90807Q41.396873 141.32994 40.896873 141.54869L40.6 141.09557Q40.928123 140.95494 41.084373 140.65807Q41.240623 140.37682 41.271873 139.84557L40.6625 139.84557ZM43.1 135.61119Q43.1 134.07994 43.4125 133.15807Q43.725 132.22057 44.334373 131.72057Q44.959373 131.22057 45.896873 131.22057Q46.584373 131.22057 47.1 131.50182Q47.63125 131.78307 47.975 132.31432Q48.31875 132.82994 48.50625 133.57994Q48.69375 134.32994 48.69375 135.61119Q48.69375 137.12682 48.38125 138.04869Q48.084373 138.97057 47.459373 139.48619Q46.85 139.98619 45.896873 139.98619Q44.6625 139.98619 43.94375 139.09557Q43.1 138.03307 43.1 135.61119ZM44.178123 135.61119Q44.178123 137.72057 44.678123 138.42369Q45.178123 139.12682 45.896873 139.12682Q46.63125 139.12682 47.115623 138.42369Q47.615623 137.72057 47.615623 135.61119Q47.615623 133.48619 47.115623 132.79869Q46.63125 132.09557 45.88125 132.09557Q45.1625 132.09557 44.725 132.70494Q44.178123 133.48619 44.178123 135.61119ZM50.303123 133.31432Q50.303123 132.39244 50.75625 131.75182Q51.225 131.11119 52.1 131.11119Q52.9125 131.11119 53.44375 131.68932Q53.975 132.26744 53.975 133.37682Q53.975 134.47057 53.428123 135.06432Q52.896873 135.64244 52.115623 135.64244Q51.334373 135.64244 50.81875 135.06432Q50.303123 134.48619 50.303123 133.31432ZM52.13125 131.82994Q51.740623 131.82994 51.475 132.17369Q51.225 132.51744 51.225 133.42369Q51.225 134.25182 51.475 134.59557Q51.740623 134.92369 52.13125 134.92369Q52.5375 134.92369 52.7875 134.57994Q53.053123 134.23619 53.053123 133.34557Q53.053123 132.50182 52.7875 132.17369Q52.521873 131.82994 52.13125 131.82994ZM52.13125 140.15807L56.834373 131.11119L57.69375 131.11119L53.00625 140.15807L52.13125 140.15807ZM55.85 137.82994Q55.85 136.90807 56.303123 136.26744Q56.771873 135.62682 57.6625 135.62682Q58.475 135.62682 59.00625 136.20494Q59.5375 136.76744 59.5375 137.89244Q59.5375 138.98619 58.990623 139.57994Q58.459373 140.15807 57.6625 140.15807Q56.896873 140.15807 56.365623 139.57994Q55.85 139.00182 55.85 137.82994ZM57.69375 136.34557Q57.2875 136.34557 57.021873 136.68932Q56.771873 137.03307 56.771873 137.93932Q56.771873 138.75182 57.0375 139.09557Q57.303123 139.43932 57.69375 139.43932Q58.084373 139.43932 58.35 139.09557Q58.615623 138.75182 58.615623 137.84557Q58.615623 137.01744 58.35 136.68932Q58.084373 136.34557 57.69375 136.34557Z" fill-rule="nonzero"/><path stroke="#757575" stroke-width="1.0" stroke-linecap="butt" d="M25.6 127.345566L177.1 127.345566L236.42236 127.345566" fill-rule="nonzero"/><path fill="#9e9e9e" d="M238.42236 127.345566C238.42236 126.241 237.52693 125.345566 236.42236 125.345566C235.3178 125.345566 234.42236 126.241 234.42236 127.345566C234.42236 128.45013 235.3178 129.34557 236.42236 129.34557C237.52693 129.34557 238.42236 128.45013 238.42236 127.345566" fill-rule="nonzero"/><path fill="#1a1a1a" d="M26.521875 406.27155L26.521875 397.6778L29.771875 397.6778Q30.615625 397.6778 31.06875 397.75592Q31.709375 397.8653 32.13125 398.16217Q32.56875 398.45905 32.81875 398.9903Q33.084373 399.52155 33.084373 400.16217Q33.084373 401.25592 32.38125 402.02155Q31.69375 402.77155 29.865625 402.77155L27.6625 402.77155L27.6625 406.27155L26.521875 406.27155ZM27.6625 401.77155L29.88125 401.77155Q30.990625 401.77155 31.44375 401.3653Q31.9125 400.94342 31.9125 400.19342Q31.9125 399.66217 31.63125 399.28717Q31.365625 398.89655 30.928125 398.77155Q30.63125 398.69342 29.865625 398.69342L27.6625 398.69342L27.6625 401.77155ZM34.00625 403.16217Q34.00625 401.4278 34.959373 400.59967Q35.75625 399.91217 36.9125 399.91217Q38.19375 399.91217 39.00625 400.75592Q39.834373 401.58405 39.834373 403.06842Q39.834373 404.27155 39.475 404.95905Q39.115623 405.64655 38.4125 406.03717Q37.725 406.41217 36.9125 406.41217Q35.615623 406.41217 34.803123 405.58405Q34.00625 404.7403 34.00625 403.16217ZM35.084373 403.16217Q35.084373 404.34967 35.6 404.94342Q36.13125 405.53717 36.9125 405.53717Q37.709373 405.53717 38.225 404.94342Q38.740623 404.34967 38.740623 403.13092Q38.740623 401.97467 38.209373 401.38092Q37.69375 400.78717 36.9125 400.78717Q36.13125 400.78717 35.6 401.38092Q35.084373 401.95905 35.084373 403.16217ZM41.38125 406.27155L41.38125 400.0528L42.334373 400.0528L42.334373 400.9903Q42.69375 400.33405 42.990623 400.13092Q43.303123 399.91217 43.678123 399.91217Q44.209373 399.91217 44.75625 400.2403L44.396873 401.22467Q44.00625 400.9903 43.63125 400.9903Q43.271873 400.9903 42.990623 401.20905Q42.725 401.41217 42.615623 401.78717Q42.428123 402.34967 42.428123 403.00592L42.428123 406.27155L41.38125 406.27155ZM47.69375 405.33405L47.85 406.25592Q47.396873 406.34967 47.053123 406.34967Q46.475 406.34967 46.1625 406.1778Q45.85 405.9903 45.709373 405.69342Q45.584373 405.39655 45.584373 404.44342L45.584373 400.8653L44.81875 400.8653L44.81875 400.0528L45.584373 400.0528L45.584373 398.50592L46.63125 397.88092L46.63125 400.0528L47.69375 400.0528L47.69375 400.8653L46.63125 400.8653L46.63125 404.50592Q46.63125 404.95905 46.678123 405.08405Q46.740623 405.20905 46.865623 405.28717Q46.990623 405.3653 47.225 405.3653Q47.4125 405.3653 47.69375 405.33405ZM48.646873 406.27155L48.646873 400.8653L47.709373 400.8653L47.709373 400.0528L48.646873 400.0528L48.646873 399.38092Q48.646873 398.75592 48.75625 398.45905Q48.9125 398.03717 49.2875 397.78717Q49.678123 397.53717 50.365623 397.53717Q50.81875 397.53717 51.35 397.64655L51.19375 398.5528Q50.865623 398.50592 50.56875 398.50592Q50.084373 398.50592 49.88125 398.70905Q49.69375 398.91217 49.69375 399.47467L49.69375 400.0528L50.9125 400.0528L50.9125 400.8653L49.69375 400.8653L49.69375 406.27155L48.646873 406.27155ZM51.00625 403.16217Q51.00625 401.4278 51.959373 400.59967Q52.75625 399.91217 53.9125 399.91217Q55.19375 399.91217 56.00625 400.75592Q56.834373 401.58405 56.834373 403.06842Q56.834373 404.27155 56.475 404.95905Q56.115623 405.64655 55.4125 406.03717Q54.725 406.41217 53.9125 406.41217Q52.615623 406.41217 51.803123 405.58405Q51.00625 404.7403 51.00625 403.16217ZM52.084373 403.16217Q52.084373 404.34967 52.6 404.94342Q53.13125 405.53717 53.9125 405.53717Q54.709373 405.53717 55.225 404.94342Q55.740623 404.34967 55.740623 403.13092Q55.740623 401.97467 55.209373 401.38092Q54.69375 400.78717 53.9125 400.78717Q53.13125 400.78717 52.6 401.38092Q52.084373 401.95905 52.084373 403.16217ZM58.365623 406.27155L58.365623 397.6778L59.428123 397.6778L59.428123 406.27155L58.365623 406.27155ZM61.396873 398.89655L61.396873 397.6778L62.459373 397.6778L62.459373 398.89655L61.396873 398.89655ZM61.396873 406.27155L61.396873 400.0528L62.459373 400.0528L62.459373 406.27155L61.396873 406.27155ZM64.00625 403.16217Q64.00625 401.4278 64.95937 400.59967Q65.75625 399.91217 66.9125 399.91217Q68.19375 399.91217 69.00625 400.75592Q69.83437 401.58405 69.83437 403.06842Q69.83437 404.27155 69.475 404.95905Q69.11562 405.64655 68.4125 406.03717Q67.725 406.41217 66.9125 406.41217Q65.61562 406.41217 64.80312 405.58405Q64.00625 404.7403 64.00625 403.16217ZM65.08437 403.16217Q65.08437 404.34967 65.6 404.94342Q66.13125 405.53717 66.9125 405.53717Q67.70937 405.53717 68.225 404.94342Q68.74062 404.34967 68.74062 403.13092Q68.74062 401.97467 68.20937 401.38092Q67.69375 400.78717 66.9125 400.78717Q66.13125 400.78717 65.6 401.38092Q65.08437 401.95905 65.08437 403.16217ZM74.00625 403.16217Q74.00625 401.4278 74.95937 400.59967Q75.75625 399.91217 76.9125 399.91217Q78.19375 399.91217 79.00625 400.75592Q79.83437 401.58405 79.83437 403.06842Q79.83437 404.27155 79.475 404.95905Q79.11562 405.64655 78.4125 406.03717Q77.725 406.41217 76.9125 406.41217Q75.61562 406.41217 74.80312 405.58405Q74.00625 404.7403 74.00625 403.16217ZM75.08437 403.16217Q75.08437 404.34967 75.6 404.94342Q76.13125 405.53717 76.9125 405.53717Q77.70937 405.53717 78.225 404.94342Q78.74062 404.34967 78.74062 403.13092Q78.74062 401.97467 78.20937 401.38092Q77.69375 400.78717 76.9125 400.78717Q76.13125 400.78717 75.6 401.38092Q75.08437 401.95905 75.08437 403.16217ZM81.39687 408.66217L81.39687 400.0528L82.35 400.0528L82.35 400.84967Q82.69375 400.38092 83.11562 400.14655Q83.55312 399.91217 84.1625 399.91217Q84.95937 399.91217 85.56875 400.31842Q86.17812 400.72467 86.475 401.47467Q86.7875 402.22467 86.7875 403.1153Q86.7875 404.06842 86.44375 404.83405Q86.11562 405.59967 85.45937 406.00592Q84.80312 406.41217 84.08437 406.41217Q83.55312 406.41217 83.13125 406.19342Q82.70937 405.95905 82.44375 405.63092L82.44375 408.66217L81.39687 408.66217ZM82.35 403.19342Q82.35 404.39655 82.83437 404.97467Q83.31875 405.53717 84.00625 405.53717Q84.70937 405.53717 85.20937 404.94342Q85.70937 404.34967 85.70937 403.09967Q85.70937 401.91217 85.225 401.33405Q84.74062 400.7403 84.05312 400.7403Q83.38125 400.7403 82.86562 401.3653Q82.35 401.9903 82.35 403.19342ZM90.69375 405.33405L90.85 406.25592Q90.39687 406.34967 90.05312 406.34967Q89.475 406.34967 89.1625 406.1778Q88.85 405.9903 88.70937 405.69342Q88.58437 405.39655 88.58437 404.44342L88.58437 400.8653L87.81875 400.8653L87.81875 400.0528L88.58437 400.0528L88.58437 398.50592L89.63125 397.88092L89.63125 400.0528L90.69375 400.0528L90.69375 400.8653L89.63125 400.8653L89.63125 404.50592Q89.63125 404.95905 89.67812 405.08405Q89.74062 405.20905 89.86562 405.28717Q89.99062 405.3653 90.225 405.3653Q90.4125 405.3653 90.69375 405.33405ZM91.39687 398.89655L91.39687 397.6778L92.45937 397.6778L92.45937 398.89655L91.39687 398.89655ZM91.39687 406.27155L91.39687 400.0528L92.45937 400.0528L92.45937 406.27155L91.39687 406.27155ZM94.39687 406.27155L94.39687 400.0528L95.33437 400.0528L95.33437 400.9278Q95.63125 400.45905 96.11562 400.19342Q96.6 399.91217 97.225 399.91217Q97.9125 399.91217 98.35 400.19342Q98.80312 400.47467 98.975 400.9903Q99.725 399.91217 100.89687 399.91217Q101.83437 399.91217 102.31875 400.4278Q102.81875 400.9278 102.81875 402.00592L102.81875 406.27155L101.77187 406.27155L101.77187 402.34967Q101.77187 401.72467 101.6625 401.44342Q101.56875 401.16217 101.30312 400.9903Q101.0375 400.81842 100.6625 400.81842Q100.00625 400.81842 99.56875 401.25592Q99.14687 401.69342 99.14687 402.66217L99.14687 406.27155L98.08437 406.27155L98.08437 402.22467Q98.08437 401.52155 97.81875 401.1778Q97.56875 400.81842 96.99062 400.81842Q96.5375 400.81842 96.1625 401.0528Q95.7875 401.28717 95.61562 401.7403Q95.44375 402.19342 95.44375 403.03717L95.44375 406.27155L94.39687 406.27155ZM105.39687 398.89655L105.39687 397.6778L106.45937 397.6778L106.45937 398.89655L105.39687 398.89655ZM105.39687 406.27155L105.39687 400.0528L106.45937 400.0528L106.45937 406.27155L105.39687 406.27155ZM107.975 404.41217L109.00625 404.25592Q109.1 404.88092 109.49062 405.20905Q109.89687 405.53717 110.63125 405.53717Q111.35 405.53717 111.69375 405.25592Q112.05312 404.95905 112.05312 404.5528Q112.05312 404.19342 111.74062 403.9903Q111.52187 403.84967 110.6625 403.63092Q109.50625 403.33405 109.05312 403.13092Q108.61562 402.91217 108.38125 402.53717Q108.14687 402.16217 108.14687 401.69342Q108.14687 401.28717 108.33437 400.9278Q108.52187 400.56842 108.85 400.33405Q109.1 400.16217 109.52187 400.03717Q109.94375 399.91217 110.44375 399.91217Q111.1625 399.91217 111.70937 400.13092Q112.27187 400.33405 112.5375 400.69342Q112.80312 401.0528 112.89687 401.64655L111.86562 401.78717Q111.80312 401.31842 111.45937 401.0528Q111.13125 400.77155 110.50625 400.77155Q109.7875 400.77155 109.475 401.02155Q109.1625 401.25592 109.1625 401.58405Q109.1625 401.78717 109.2875 401.94342Q109.42812 402.1153 109.69375 402.22467Q109.85 402.28717 110.63125 402.4903Q111.75625 402.8028 112.19375 402.9903Q112.63125 403.1778 112.88125 403.53717Q113.13125 403.89655 113.13125 404.44342Q113.13125 404.97467 112.81875 405.44342Q112.52187 405.89655 111.94375 406.16217Q111.36562 406.41217 110.63125 406.41217Q109.4125 406.41217 108.77187 405.91217Q108.14687 405.39655 107.975 404.41217ZM119.45937 405.50592Q118.86562 406.00592 118.31875 406.20905Q117.7875 406.41217 117.1625 406.41217Q116.13125 406.41217 115.58437 405.91217Q115.0375 405.41217 115.0375 404.63092Q115.0375 404.1778 115.24062 403.8028Q115.44375 403.41217 115.7875 403.19342Q116.13125 402.95905 116.55312 402.84967Q116.85 402.75592 117.49062 402.6778Q118.75625 402.53717 119.36562 402.31842Q119.36562 402.09967 119.36562 402.0528Q119.36562 401.39655 119.06875 401.13092Q118.6625 400.78717 117.86562 400.78717Q117.13125 400.78717 116.77187 401.0528Q116.4125 401.3028 116.24062 401.95905L115.20937 401.81842Q115.35 401.16217 115.67812 400.75592Q116.00625 400.34967 116.61562 400.13092Q117.225 399.91217 118.02187 399.91217Q118.81875 399.91217 119.31875 400.09967Q119.81875 400.28717 120.05312 400.56842Q120.2875 400.84967 120.38125 401.28717Q120.42812 401.5528 120.42812 402.25592L120.42812 403.66217Q120.42812 405.13092 120.49062 405.52155Q120.56875 405.91217 120.77187 406.27155L119.6625 406.27155Q119.50625 405.94342 119.45937 405.50592ZM119.36562 403.14655Q118.7875 403.38092 117.64687 403.5528Q116.99062 403.64655 116.725 403.77155Q116.45937 403.88092 116.30312 404.09967Q116.1625 404.31842 116.1625 404.59967Q116.1625 405.02155 116.475 405.3028Q116.80312 405.58405 117.4125 405.58405Q118.02187 405.58405 118.49062 405.31842Q118.975 405.0528 119.19375 404.58405Q119.36562 404.22467 119.36562 403.53717L119.36562 403.14655ZM124.69375 405.33405L124.85 406.25592Q124.39687 406.34967 124.05312 406.34967Q123.475 406.34967 123.1625 406.1778Q122.85 405.9903 122.70937 405.69342Q122.58437 405.39655 122.58437 404.44342L122.58437 400.8653L121.81875 400.8653L121.81875 400.0528L122.58437 400.0528L122.58437 398.50592L123.63125 397.88092L123.63125 400.0528L124.69375 400.0528L124.69375 400.8653L123.63125 400.8653L123.63125 404.50592Q123.63125 404.95905 123.67812 405.08405Q123.74062 405.20905 123.86562 405.28717Q123.99062 405.3653 124.225 405.3653Q124.4125 405.3653 124.69375 405.33405ZM125.39687 398.89655L125.39687 397.6778L126.45937 397.6778L126.45937 398.89655L125.39687 398.89655ZM125.39687 406.27155L125.39687 400.0528L126.45937 400.0528L126.45937 406.27155L125.39687 406.27155ZM128.00626 403.16217Q128.00626 401.4278 128.95938 400.59967Q129.75626 399.91217 130.9125 399.91217Q132.19376 399.91217 133.00626 400.75592Q133.83438 401.58405 133.83438 403.06842Q133.83438 404.27155 133.475 404.95905Q133.11563 405.64655 132.4125 406.03717Q131.725 406.41217 130.9125 406.41217Q129.61563 406.41217 128.80313 405.58405Q128.00626 404.7403 128.00626 403.16217ZM129.08438 403.16217Q129.08438 404.34967 129.6 404.94342Q130.13126 405.53717 130.9125 405.53717Q131.70938 405.53717 132.225 404.94342Q132.74063 404.34967 132.74063 403.13092Q132.74063 401.97467 132.20938 401.38092Q131.69376 400.78717 130.9125 400.78717Q130.13126 400.78717 129.6 401.38092Q129.08438 401.95905 129.08438 403.16217ZM135.39688 406.27155L135.39688 400.0528L136.33438 400.0528L136.33438 400.9278Q137.02188 399.91217 138.31876 399.91217Q138.88126 399.91217 139.35 400.1153Q139.83438 400.31842 140.06876 400.64655Q140.30313 400.97467 140.39688 401.41217Q140.44376 401.70905 140.44376 402.44342L140.44376 406.27155L139.39688 406.27155L139.39688 402.4903Q139.39688 401.83405 139.27188 401.52155Q139.14688 401.20905 138.83438 401.02155Q138.52188 400.81842 138.1 400.81842Q137.42813 400.81842 136.92813 401.25592Q136.44376 401.6778 136.44376 402.8653L136.44376 406.27155L135.39688 406.27155Z" fill-rule="nonzero"/><path fill="#9e9e9e" d="M31.646875 422.25592L31.646875 423.27155L25.959375 423.27155Q25.959375 422.89655 26.084375 422.53717Q26.303125 421.95905 26.771875 421.39655Q27.25625 420.83405 28.1625 420.09967Q29.56875 418.94342 30.053125 418.27155Q30.553125 417.59967 30.553125 417.00592Q30.553125 416.38092 30.1 415.95905Q29.646875 415.52155 28.928125 415.52155Q28.1625 415.52155 27.709375 415.97467Q27.25625 416.4278 27.240625 417.2403L26.1625 417.13092Q26.271875 415.91217 26.990625 415.28717Q27.725 414.64655 28.959375 414.64655Q30.19375 414.64655 30.9125 415.33405Q31.63125 416.02155 31.63125 417.03717Q31.63125 417.5528 31.4125 418.0528Q31.209375 418.53717 30.709375 419.09967Q30.225 419.64655 29.1 420.59967Q28.146875 421.39655 27.865625 421.69342Q27.6 421.97467 27.428125 422.25592L31.646875 422.25592ZM33.1 421.02155L34.209373 420.9278Q34.334373 421.7403 34.771873 422.14655Q35.225 422.5528 35.865623 422.5528Q36.615623 422.5528 37.146873 421.97467Q37.678123 421.39655 37.678123 420.45905Q37.678123 419.5528 37.1625 419.03717Q36.6625 418.50592 35.834373 418.50592Q35.334373 418.50592 34.9125 418.7403Q34.50625 418.97467 34.271873 419.33405L33.2875 419.20905L34.115623 414.8028L38.396873 414.8028L38.396873 415.8028L34.959373 415.8028L34.50625 418.1153Q35.271873 417.56842 36.115623 417.56842Q37.240623 417.56842 38.00625 418.34967Q38.7875 419.13092 38.7875 420.3653Q38.7875 421.52155 38.115623 422.38092Q37.2875 423.41217 35.865623 423.41217Q34.69375 423.41217 33.94375 422.75592Q33.209373 422.09967 33.1 421.02155ZM40.6625 423.27155L40.6625 422.06842L41.865623 422.06842L41.865623 423.27155Q41.865623 423.9278 41.63125 424.33405Q41.396873 424.75592 40.896873 424.97467L40.6 424.52155Q40.928123 424.38092 41.084373 424.08405Q41.240623 423.8028 41.271873 423.27155L40.6625 423.27155ZM43.1 419.03717Q43.1 417.50592 43.4125 416.58405Q43.725 415.64655 44.334373 415.14655Q44.959373 414.64655 45.896873 414.64655Q46.584373 414.64655 47.1 414.9278Q47.63125 415.20905 47.975 415.7403Q48.31875 416.25592 48.50625 417.00592Q48.69375 417.75592 48.69375 419.03717Q48.69375 420.5528 48.38125 421.47467Q48.084373 422.39655 47.459373 422.91217Q46.85 423.41217 45.896873 423.41217Q44.6625 423.41217 43.94375 422.52155Q43.1 421.45905 43.1 419.03717ZM44.178123 419.03717Q44.178123 421.14655 44.678123 421.84967Q45.178123 422.5528 45.896873 422.5528Q46.63125 422.5528 47.115623 421.84967Q47.615623 421.14655 47.615623 419.03717Q47.615623 416.91217 47.115623 416.22467Q46.63125 415.52155 45.88125 415.52155Q45.1625 415.52155 44.725 416.13092Q44.178123 416.91217 44.178123 419.03717ZM50.303123 416.7403Q50.303123 415.81842 50.75625 415.1778Q51.225 414.53717 52.1 414.53717Q52.9125 414.53717 53.44375 415.1153Q53.975 415.69342 53.975 416.8028Q53.975 417.89655 53.428123 418.4903Q52.896873 419.06842 52.115623 419.06842Q51.334373 419.06842 50.81875 418.4903Q50.303123 417.91217 50.303123 416.7403ZM52.13125 415.25592Q51.740623 415.25592 51.475 415.59967Q51.225 415.94342 51.225 416.84967Q51.225 417.6778 51.475 418.02155Q51.740623 418.34967 52.13125 418.34967Q52.5375 418.34967 52.7875 418.00592Q53.053123 417.66217 53.053123 416.77155Q53.053123 415.9278 52.7875 415.59967Q52.521873 415.25592 52.13125 415.25592ZM52.13125 423.58405L56.834373 414.53717L57.69375 414.53717L53.00625 423.58405L52.13125 423.58405ZM55.85 421.25592Q55.85 420.33405 56.303123 419.69342Q56.771873 419.0528 57.6625 419.0528Q58.475 419.0528 59.00625 419.63092Q59.5375 420.19342 59.5375 421.31842Q59.5375 422.41217 58.990623 423.00592Q58.459373 423.58405 57.6625 423.58405Q56.896873 423.58405 56.365623 423.00592Q55.85 422.4278 55.85 421.25592ZM57.69375 419.77155Q57.2875 419.77155 57.021873 420.1153Q56.771873 420.45905 56.771873 421.3653Q56.771873 422.1778 57.0375 422.52155Q57.303123 422.8653 57.69375 422.8653Q58.084373 422.8653 58.35 422.52155Q58.615623 422.1778 58.615623 421.27155Q58.615623 420.44342 58.35 420.1153Q58.084373 419.77155 57.69375 419.77155Z" fill-rule="nonzero"/><path stroke="#757575" stroke-width="1.0" stroke-linecap="butt" d="M25.6 410.77155L177.1 410.77155L258.72845 410.77155" fill-rule="nonzero"/><path fill="#9e9e9e" d="M260.72845 410.77155C260.72845 409.66696 259.83304 408.77155 258.72845 408.77155C257.6239 408.77155 256.72845 409.66696 256.72845 410.77155C256.72845 411.8761 257.6239 412.77155 258.72845 412.77155C259.83304 412.77155 260.72845 411.8761 260.72845 410.77155" fill-rule="nonzero"/><path fill="#1a1a1a" d="M732.35315 183.86237L732.35315 175.26862L738.5563 175.26862L738.5563 176.28424L733.4938 176.28424L733.4938 178.90924L738.2438 178.90924L738.2438 179.92487L733.4938 179.92487L733.4938 182.84674L738.7594 182.84674L738.7594 183.86237L732.35315 183.86237ZM742.5094 183.86237L742.5094 176.28424L739.6813 176.28424L739.6813 175.26862L746.4938 175.26862L746.4938 176.28424L743.65 176.28424L743.65 183.86237L742.5094 183.86237ZM747.3844 183.86237L747.3844 175.26862L753.1813 175.26862L753.1813 176.28424L748.525 176.28424L748.525 178.94049L752.5563 178.94049L752.5563 179.95612L748.525 179.95612L748.525 183.86237L747.3844 183.86237ZM756.9469 181.09674L758.0094 181.00299Q758.0875 181.65924 758.3688 182.06549Q758.65 182.47174 759.22815 182.73737Q759.8219 182.98737 760.5563 182.98737Q761.1969 182.98737 761.6969 182.79987Q762.1969 182.59674 762.4313 182.26862Q762.6813 181.92487 762.6813 181.53424Q762.6813 181.12799 762.4469 180.83112Q762.2125 180.51862 761.6813 180.31549Q761.3219 180.17487 760.1344 179.89362Q758.9625 179.61237 758.4938 179.36237Q757.8688 179.03424 757.5719 178.56549Q757.275 178.08112 757.275 177.48737Q757.275 176.84674 757.6344 176.28424Q758.0094 175.70612 758.7125 175.42487Q759.4313 175.12799 760.29065 175.12799Q761.2438 175.12799 761.97815 175.44049Q762.7125 175.73737 763.10315 176.34674Q763.4938 176.94049 763.525 177.69049L762.4313 177.76862Q762.3375 176.95612 761.8219 176.54987Q761.3219 176.12799 760.3375 176.12799Q759.3063 176.12799 758.8375 176.50299Q758.3688 176.87799 758.3688 177.40924Q758.3688 177.87799 758.6969 178.17487Q759.025 178.47174 760.4 178.78424Q761.79065 179.09674 762.3063 179.33112Q763.0563 179.69049 763.41565 180.22174Q763.775 180.73737 763.775 181.44049Q763.775 182.12799 763.3844 182.73737Q762.9938 183.33112 762.2594 183.67487Q761.525 184.00299 760.60315 184.00299Q759.4313 184.00299 758.6344 183.67487Q757.85315 183.33112 757.4 182.64362Q756.9625 181.95612 756.9469 181.09674ZM770.10315 182.84674Q769.5875 183.42487 768.9625 183.72174Q768.35315 184.00299 767.6344 184.00299Q766.3219 184.00299 765.54065 183.11237Q764.91565 182.39362 764.91565 181.48737Q764.91565 180.69049 765.4313 180.04987Q765.9469 179.40924 766.9625 178.92487Q766.3844 178.25299 766.1813 177.84674Q765.9938 177.42487 765.9938 177.03424Q765.9938 176.26862 766.60315 175.70612Q767.2125 175.12799 768.1344 175.12799Q769.0094 175.12799 769.5563 175.67487Q770.1188 176.20612 770.1188 176.95612Q770.1188 178.19049 768.5094 179.04987L770.04065 181.01862Q770.3063 180.50299 770.4469 179.81549L771.5563 180.04987Q771.275 181.17487 770.79065 181.90924Q771.3844 182.69049 772.1344 183.22174L771.41565 184.06549Q770.775 183.64362 770.10315 182.84674ZM767.9625 178.37799Q768.65 177.97174 768.8375 177.67487Q769.04065 177.36237 769.04065 176.98737Q769.04065 176.54987 768.7594 176.26862Q768.4938 175.98737 768.0719 175.98737Q767.65 175.98737 767.35315 176.26862Q767.0719 176.54987 767.0719 176.94049Q767.0719 177.14362 767.1813 177.36237Q767.29065 177.58112 767.4938 177.83112L767.9625 178.37799ZM769.4469 182.01862L767.5094 179.61237Q766.65 180.12799 766.35315 180.56549Q766.0563 181.00299 766.0563 181.42487Q766.0563 181.95612 766.4625 182.51862Q766.8844 183.08112 767.65 183.08112Q768.1188 183.08112 768.6188 182.78424Q769.1344 182.48737 769.4469 182.01862ZM773.3219 183.86237L773.3219 175.26862L776.5719 175.26862Q777.41565 175.26862 777.8688 175.34674Q778.5094 175.45612 778.9313 175.75299Q779.3688 176.04987 779.6188 176.58112Q779.8844 177.11237 779.8844 177.75299Q779.8844 178.84674 779.1813 179.61237Q778.4938 180.36237 776.66565 180.36237L774.4625 180.36237L774.4625 183.86237L773.3219 183.86237ZM774.4625 179.36237L776.6813 179.36237Q777.79065 179.36237 778.2438 178.95612Q778.7125 178.53424 778.7125 177.78424Q778.7125 177.25299 778.4313 176.87799Q778.16565 176.48737 777.72815 176.36237Q777.4313 176.28424 776.66565 176.28424L774.4625 176.28424L774.4625 179.36237ZM780.9 181.61237L782.0094 181.51862Q782.1344 182.33112 782.5719 182.73737Q783.025 183.14362 783.66565 183.14362Q784.41565 183.14362 784.9469 182.56549Q785.47815 181.98737 785.47815 181.04987Q785.47815 180.14362 784.9625 179.62799Q784.4625 179.09674 783.6344 179.09674Q783.1344 179.09674 782.7125 179.33112Q782.3063 179.56549 782.0719 179.92487L781.0875 179.79987L781.91565 175.39362L786.1969 175.39362L786.1969 176.39362L782.7594 176.39362L782.3063 178.70612Q783.0719 178.15924 783.91565 178.15924Q785.04065 178.15924 785.8063 178.94049Q786.5875 179.72174 786.5875 180.95612Q786.5875 182.11237 785.91565 182.97174Q785.0875 184.00299 783.66565 184.00299Q782.4938 184.00299 781.7438 183.34674Q781.0094 182.69049 780.9 181.61237ZM787.9 179.62799Q787.9 178.09674 788.2125 177.17487Q788.525 176.23737 789.1344 175.73737Q789.7594 175.23737 790.6969 175.23737Q791.3844 175.23737 791.9 175.51862Q792.4313 175.79987 792.775 176.33112Q793.1188 176.84674 793.3063 177.59674Q793.4938 178.34674 793.4938 179.62799Q793.4938 181.14362 793.1813 182.06549Q792.8844 182.98737 792.2594 183.50299Q791.65 184.00299 790.6969 184.00299Q789.4625 184.00299 788.7438 183.11237Q787.9 182.04987 787.9 179.62799ZM788.97815 179.62799Q788.97815 181.73737 789.47815 182.44049Q789.97815 183.14362 790.6969 183.14362Q791.4313 183.14362 791.91565 182.44049Q792.41565 181.73737 792.41565 179.62799Q792.41565 177.50299 791.91565 176.81549Q791.4313 176.11237 790.6813 176.11237Q789.9625 176.11237 789.525 176.72174Q788.97815 177.50299 788.97815 179.62799ZM794.9 179.62799Q794.9 178.09674 795.2125 177.17487Q795.525 176.23737 796.1344 175.73737Q796.7594 175.23737 797.6969 175.23737Q798.3844 175.23737 798.9 175.51862Q799.4313 175.79987 799.775 176.33112Q800.1188 176.84674 800.3063 177.59674Q800.4938 178.34674 800.4938 179.62799Q800.4938 181.14362 800.1813 182.06549Q799.8844 182.98737 799.2594 183.50299Q798.65 184.00299 797.6969 184.00299Q796.4625 184.00299 795.7438 183.11237Q794.9 182.04987 794.9 179.62799ZM795.97815 179.62799Q795.97815 181.73737 796.47815 182.44049Q796.97815 183.14362 797.6969 183.14362Q798.4313 183.14362 798.91565 182.44049Q799.41565 181.73737 799.41565 179.62799Q799.41565 177.50299 798.91565 176.81549Q798.4313 176.11237 797.6813 176.11237Q796.9625 176.11237 796.525 176.72174Q795.97815 177.50299 795.97815 179.62799Z" fill-rule="nonzero"/><path fill="#9e9e9e" d="M770.275 200.86237L770.275 198.79987L766.5563 198.79987L766.5563 197.83112L770.47815 192.26862L771.3375 192.26862L771.3375 197.83112L772.4938 197.83112L772.4938 198.79987L771.3375 198.79987L771.3375 200.86237L770.275 200.86237ZM770.275 197.83112L770.275 193.97174L767.5875 197.83112L770.275 197.83112ZM773.9 196.62799Q773.9 195.09674 774.2125 194.17487Q774.525 193.23737 775.1344 192.73737Q775.7594 192.23737 776.6969 192.23737Q777.3844 192.23737 777.9 192.51862Q778.4313 192.79987 778.775 193.33112Q779.1188 193.84674 779.3063 194.59674Q779.4938 195.34674 779.4938 196.62799Q779.4938 198.14362 779.1813 199.06549Q778.8844 199.98737 778.2594 200.50299Q777.65 201.00299 776.6969 201.00299Q775.4625 201.00299 774.7438 200.11237Q773.9 199.04987 773.9 196.62799ZM774.97815 196.62799Q774.97815 198.73737 775.47815 199.44049Q775.97815 200.14362 776.6969 200.14362Q777.4313 200.14362 777.91565 199.44049Q778.41565 198.73737 778.41565 196.62799Q778.41565 194.50299 777.91565 193.81549Q777.4313 193.11237 776.6813 193.11237Q775.9625 193.11237 775.525 193.72174Q774.97815 194.50299 774.97815 196.62799ZM781.4625 200.86237L781.4625 199.65924L782.66565 199.65924L782.66565 200.86237Q782.66565 201.51862 782.4313 201.92487Q782.1969 202.34674 781.6969 202.56549L781.4 202.11237Q781.72815 201.97174 781.8844 201.67487Q782.04065 201.39362 782.0719 200.86237L781.4625 200.86237ZM783.9 196.62799Q783.9 195.09674 784.2125 194.17487Q784.525 193.23737 785.1344 192.73737Q785.7594 192.23737 786.6969 192.23737Q787.3844 192.23737 787.9 192.51862Q788.4313 192.79987 788.775 193.33112Q789.1188 193.84674 789.3063 194.59674Q789.4938 195.34674 789.4938 196.62799Q789.4938 198.14362 789.1813 199.06549Q788.8844 199.98737 788.2594 200.50299Q787.65 201.00299 786.6969 201.00299Q785.4625 201.00299 784.7438 200.11237Q783.9 199.04987 783.9 196.62799ZM784.97815 196.62799Q784.97815 198.73737 785.47815 199.44049Q785.97815 200.14362 786.6969 200.14362Q787.4313 200.14362 787.91565 199.44049Q788.41565 198.73737 788.41565 196.62799Q788.41565 194.50299 787.91565 193.81549Q787.4313 193.11237 786.6813 193.11237Q785.9625 193.11237 785.525 193.72174Q784.97815 194.50299 784.97815 196.62799ZM791.10315 194.33112Q791.10315 193.40924 791.5563 192.76862Q792.025 192.12799 792.9 192.12799Q793.7125 192.12799 794.2438 192.70612Q794.775 193.28424 794.775 194.39362Q794.775 195.48737 794.22815 196.08112Q793.6969 196.65924 792.91565 196.65924Q792.1344 196.65924 791.6188 196.08112Q791.10315 195.50299 791.10315 194.33112ZM792.9313 192.84674Q792.54065 192.84674 792.275 193.19049Q792.025 193.53424 792.025 194.44049Q792.025 195.26862 792.275 195.61237Q792.54065 195.94049 792.9313 195.94049Q793.3375 195.94049 793.5875 195.59674Q793.85315 195.25299 793.85315 194.36237Q793.85315 193.51862 793.5875 193.19049Q793.3219 192.84674 792.9313 192.84674ZM792.9313 201.17487L797.6344 192.12799L798.4938 192.12799L793.8063 201.17487L792.9313 201.17487ZM796.65 198.84674Q796.65 197.92487 797.10315 197.28424Q797.5719 196.64362 798.4625 196.64362Q799.275 196.64362 799.8063 197.22174Q800.3375 197.78424 800.3375 198.90924Q800.3375 200.00299 799.79065 200.59674Q799.2594 201.17487 798.4625 201.17487Q797.6969 201.17487 797.16565 200.59674Q796.65 200.01862 796.65 198.84674ZM798.4938 197.36237Q798.0875 197.36237 797.8219 197.70612Q797.5719 198.04987 797.5719 198.95612Q797.5719 199.76862 797.8375 200.11237Q798.10315 200.45612 798.4938 200.45612Q798.8844 200.45612 799.15 200.11237Q799.41565 199.76862 799.41565 198.86237Q799.41565 198.03424 799.15 197.70612Q798.8844 197.36237 798.4938 197.36237Z" fill-rule="nonzero"/><path stroke="#757575" stroke-width="1.0" stroke-linecap="butt" d="M801.4 188.36237L649.9 188.36237L621.66724 188.36237" fill-rule="nonzero"/><path fill="#9e9e9e" d="M623.66724 188.36237C623.66724 187.2578 622.7718 186.36237 621.66724 186.36237C620.5627 186.36237 619.66724 187.2578 619.66724 188.36237C619.66724 189.46693 620.5627 190.36237 621.66724 190.36237C622.7718 190.36237 623.66724 189.46693 623.66724 188.36237" fill-rule="nonzero"/><path fill="#1a1a1a" d="M685.3219 459.66724L685.3219 451.0735L688.5719 451.0735Q689.41565 451.0735 689.8688 451.1516Q690.5094 451.261 690.9313 451.55786Q691.3688 451.85474 691.6188 452.386Q691.8844 452.91724 691.8844 453.55786Q691.8844 454.6516 691.1813 455.41724Q690.4938 456.16724 688.66565 456.16724L686.4625 456.16724L686.4625 459.66724L685.3219 459.66724ZM686.4625 455.16724L688.6813 455.16724Q689.79065 455.16724 690.2438 454.761Q690.7125 454.3391 690.7125 453.5891Q690.7125 453.05786 690.4313 452.68286Q690.16565 452.29224 689.72815 452.16724Q689.4313 452.0891 688.66565 452.0891L686.4625 452.0891L686.4625 455.16724ZM692.8063 456.55786Q692.8063 454.8235 693.7594 453.99536Q694.5563 453.30786 695.7125 453.30786Q696.9938 453.30786 697.8063 454.1516Q698.6344 454.97974 698.6344 456.4641Q698.6344 457.66724 698.275 458.35474Q697.91565 459.04224 697.2125 459.43286Q696.525 459.80786 695.7125 459.80786Q694.41565 459.80786 693.60315 458.97974Q692.8063 458.136 692.8063 456.55786ZM693.8844 456.55786Q693.8844 457.74536 694.4 458.3391Q694.9313 458.93286 695.7125 458.93286Q696.5094 458.93286 697.025 458.3391Q697.54065 457.74536 697.54065 456.5266Q697.54065 455.37036 697.0094 454.7766Q696.4938 454.18286 695.7125 454.18286Q694.9313 454.18286 694.4 454.7766Q693.8844 455.35474 693.8844 456.55786ZM700.16565 459.66724L700.16565 451.0735L701.22815 451.0735L701.22815 459.66724L700.16565 459.66724ZM703.1969 452.29224L703.1969 451.0735L704.2594 451.0735L704.2594 452.29224L703.1969 452.29224ZM703.1969 459.66724L703.1969 453.4485L704.2594 453.4485L704.2594 459.66724L703.1969 459.66724ZM708.4938 458.72974L708.65 459.6516Q708.1969 459.74536 707.85315 459.74536Q707.275 459.74536 706.9625 459.5735Q706.65 459.386 706.5094 459.0891Q706.3844 458.79224 706.3844 457.8391L706.3844 454.261L705.6188 454.261L705.6188 453.4485L706.3844 453.4485L706.3844 451.9016L707.4313 451.2766L707.4313 453.4485L708.4938 453.4485L708.4938 454.261L707.4313 454.261L707.4313 457.9016Q707.4313 458.35474 707.47815 458.47974Q707.54065 458.60474 707.66565 458.68286Q707.79065 458.761 708.025 458.761Q708.2125 458.761 708.4938 458.72974ZM709.1969 452.29224L709.1969 451.0735L710.2594 451.0735L710.2594 452.29224L709.1969 452.29224ZM709.1969 459.66724L709.1969 453.4485L710.2594 453.4485L710.2594 459.66724L709.1969 459.66724ZM716.2594 457.386L717.29065 457.5266Q717.1188 458.5891 716.41565 459.1985Q715.7125 459.80786 714.6969 459.80786Q713.41565 459.80786 712.6344 458.97974Q711.8688 458.136 711.8688 456.5735Q711.8688 455.5735 712.1969 454.8235Q712.54065 454.05786 713.2125 453.68286Q713.9 453.30786 714.7125 453.30786Q715.7125 453.30786 716.35315 453.8235Q717.0094 454.3235 717.1969 455.2766L716.16565 455.43286Q716.025 454.80786 715.65 454.49536Q715.275 454.16724 714.7438 454.16724Q713.9469 454.16724 713.4469 454.74536Q712.9469 455.30786 712.9469 456.54224Q712.9469 457.80786 713.4313 458.37036Q713.91565 458.93286 714.6813 458.93286Q715.3063 458.93286 715.7125 458.55786Q716.1344 458.18286 716.2594 457.386ZM722.2594 458.9016Q721.66565 459.4016 721.1188 459.60474Q720.5875 459.80786 719.9625 459.80786Q718.9313 459.80786 718.3844 459.30786Q717.8375 458.80786 717.8375 458.0266Q717.8375 457.5735 718.04065 457.1985Q718.2438 456.80786 718.5875 456.5891Q718.9313 456.35474 719.35315 456.24536Q719.65 456.1516 720.29065 456.0735Q721.5563 455.93286 722.16565 455.7141Q722.16565 455.49536 722.16565 455.4485Q722.16565 454.79224 721.8688 454.5266Q721.4625 454.18286 720.66565 454.18286Q719.9313 454.18286 719.5719 454.4485Q719.2125 454.6985 719.04065 455.35474L718.0094 455.2141Q718.15 454.55786 718.47815 454.1516Q718.8063 453.74536 719.41565 453.5266Q720.025 453.30786 720.8219 453.30786Q721.6188 453.30786 722.1188 453.49536Q722.6188 453.68286 722.85315 453.9641Q723.0875 454.24536 723.1813 454.68286Q723.22815 454.9485 723.22815 455.6516L723.22815 457.05786Q723.22815 458.5266 723.29065 458.91724Q723.3688 459.30786 723.5719 459.66724L722.4625 459.66724Q722.3063 459.3391 722.2594 458.9016ZM722.16565 456.54224Q721.5875 456.7766 720.4469 456.9485Q719.79065 457.04224 719.525 457.16724Q719.2594 457.2766 719.10315 457.49536Q718.9625 457.7141 718.9625 457.99536Q718.9625 458.41724 719.275 458.6985Q719.60315 458.97974 720.2125 458.97974Q720.8219 458.97974 721.29065 458.7141Q721.775 458.4485 721.9938 457.97974Q722.16565 457.62036 722.16565 456.93286L722.16565 456.54224ZM725.16565 459.66724L725.16565 451.0735L726.22815 451.0735L726.22815 459.66724L725.16565 459.66724ZM730.775 457.80786L731.8063 457.6516Q731.9 458.2766 732.29065 458.60474Q732.6969 458.93286 733.4313 458.93286Q734.15 458.93286 734.4938 458.6516Q734.85315 458.35474 734.85315 457.9485Q734.85315 457.5891 734.54065 457.386Q734.3219 457.24536 733.4625 457.0266Q732.3063 456.72974 731.85315 456.5266Q731.41565 456.30786 731.1813 455.93286Q730.9469 455.55786 730.9469 455.0891Q730.9469 454.68286 731.1344 454.3235Q731.3219 453.9641 731.65 453.72974Q731.9 453.55786 732.3219 453.43286Q732.7438 453.30786 733.2438 453.30786Q733.9625 453.30786 734.5094 453.5266Q735.0719 453.72974 735.3375 454.0891Q735.60315 454.4485 735.6969 455.04224L734.66565 455.18286Q734.60315 454.7141 734.2594 454.4485Q733.9313 454.16724 733.3063 454.16724Q732.5875 454.16724 732.275 454.41724Q731.9625 454.6516 731.9625 454.97974Q731.9625 455.18286 732.0875 455.3391Q732.22815 455.511 732.4938 455.62036Q732.65 455.68286 733.4313 455.886Q734.5563 456.1985 734.9938 456.386Q735.4313 456.5735 735.6813 456.93286Q735.9313 457.29224 735.9313 457.8391Q735.9313 458.37036 735.6188 458.8391Q735.3219 459.29224 734.7438 459.55786Q734.16565 459.80786 733.4313 459.80786Q732.2125 459.80786 731.5719 459.30786Q730.9469 458.79224 730.775 457.80786ZM738.1969 462.05786L738.1969 453.4485L739.15 453.4485L739.15 454.24536Q739.4938 453.7766 739.91565 453.54224Q740.35315 453.30786 740.9625 453.30786Q741.7594 453.30786 742.3688 453.7141Q742.97815 454.12036 743.275 454.87036Q743.5875 455.62036 743.5875 456.511Q743.5875 457.4641 743.2438 458.22974Q742.91565 458.99536 742.2594 459.4016Q741.60315 459.80786 740.8844 459.80786Q740.35315 459.80786 739.9313 459.5891Q739.5094 459.35474 739.2438 459.0266L739.2438 462.05786L738.1969 462.05786ZM739.15 456.5891Q739.15 457.79224 739.6344 458.37036Q740.1188 458.93286 740.8063 458.93286Q741.5094 458.93286 742.0094 458.3391Q742.5094 457.74536 742.5094 456.49536Q742.5094 455.30786 742.025 454.72974Q741.54065 454.136 740.85315 454.136Q740.1813 454.136 739.66565 454.761Q739.15 455.386 739.15 456.5891ZM749.4469 457.66724L750.54065 457.79224Q750.29065 458.74536 749.5875 459.2766Q748.8844 459.80786 747.8063 459.80786Q746.4469 459.80786 745.6344 458.9641Q744.8375 458.12036 744.8375 456.60474Q744.8375 455.04224 745.65 454.18286Q746.4625 453.30786 747.7438 453.30786Q748.9938 453.30786 749.775 454.1516Q750.5719 454.99536 750.5719 456.54224Q750.5719 456.636 750.5719 456.8235L745.9313 456.8235Q745.9938 457.85474 746.5094 458.4016Q747.025 458.93286 747.8063 458.93286Q748.3844 458.93286 748.79065 458.636Q749.2125 458.3235 749.4469 457.66724ZM745.9938 455.9641L749.4625 455.9641Q749.4 455.16724 749.0719 454.7766Q748.5563 454.16724 747.7594 454.16724Q747.025 454.16724 746.525 454.6516Q746.04065 455.136 745.9938 455.9641ZM756.2594 457.386L757.29065 457.5266Q757.1188 458.5891 756.41565 459.1985Q755.7125 459.80786 754.6969 459.80786Q753.41565 459.80786 752.6344 458.97974Q751.8688 458.136 751.8688 456.5735Q751.8688 455.5735 752.1969 454.8235Q752.54065 454.05786 753.2125 453.68286Q753.9 453.30786 754.7125 453.30786Q755.7125 453.30786 756.35315 453.8235Q757.0094 454.3235 757.1969 455.2766L756.16565 455.43286Q756.025 454.80786 755.65 454.49536Q755.275 454.16724 754.7438 454.16724Q753.9469 454.16724 753.4469 454.74536Q752.9469 455.30786 752.9469 456.54224Q752.9469 457.80786 753.4313 458.37036Q753.91565 458.93286 754.6813 458.93286Q755.3063 458.93286 755.7125 458.55786Q756.1344 458.18286 756.2594 457.386ZM762.275 459.66724L762.275 458.74536Q761.54065 459.80786 760.29065 459.80786Q759.7438 459.80786 759.2594 459.60474Q758.79065 459.386 758.5563 459.0735Q758.3219 458.74536 758.22815 458.2766Q758.16565 457.97974 758.16565 457.29224L758.16565 453.4485L759.22815 453.4485L759.22815 456.9016Q759.22815 457.7141 759.29065 458.011Q759.3844 458.41724 759.6969 458.66724Q760.025 458.9016 760.5094 458.9016Q760.97815 458.9016 761.3844 458.66724Q761.8063 458.41724 761.97815 457.99536Q762.16565 457.5735 762.16565 456.7766L762.16565 453.4485L763.2125 453.4485L763.2125 459.66724L762.275 459.66724ZM765.16565 459.66724L765.16565 451.0735L766.22815 451.0735L766.22815 459.66724L765.16565 459.66724ZM772.2594 458.9016Q771.66565 459.4016 771.1188 459.60474Q770.5875 459.80786 769.9625 459.80786Q768.9313 459.80786 768.3844 459.30786Q767.8375 458.80786 767.8375 458.0266Q767.8375 457.5735 768.04065 457.1985Q768.2438 456.80786 768.5875 456.5891Q768.9313 456.35474 769.35315 456.24536Q769.65 456.1516 770.29065 456.0735Q771.5563 455.93286 772.16565 455.7141Q772.16565 455.49536 772.16565 455.4485Q772.16565 454.79224 771.8688 454.5266Q771.4625 454.18286 770.66565 454.18286Q769.9313 454.18286 769.5719 454.4485Q769.2125 454.6985 769.04065 455.35474L768.0094 455.2141Q768.15 454.55786 768.47815 454.1516Q768.8063 453.74536 769.41565 453.5266Q770.025 453.30786 770.8219 453.30786Q771.6188 453.30786 772.1188 453.49536Q772.6188 453.68286 772.85315 453.9641Q773.0875 454.24536 773.1813 454.68286Q773.22815 454.9485 773.22815 455.6516L773.22815 457.05786Q773.22815 458.5266 773.29065 458.91724Q773.3688 459.30786 773.5719 459.66724L772.4625 459.66724Q772.3063 459.3391 772.2594 458.9016ZM772.16565 456.54224Q771.5875 456.7766 770.4469 456.9485Q769.79065 457.04224 769.525 457.16724Q769.2594 457.2766 769.10315 457.49536Q768.9625 457.7141 768.9625 457.99536Q768.9625 458.41724 769.275 458.6985Q769.60315 458.97974 770.2125 458.97974Q770.8219 458.97974 771.29065 458.7141Q771.775 458.4485 771.9938 457.97974Q772.16565 457.62036 772.16565 456.93286L772.16565 456.54224ZM777.4938 458.72974L777.65 459.6516Q777.1969 459.74536 776.85315 459.74536Q776.275 459.74536 775.9625 459.5735Q775.65 459.386 775.5094 459.0891Q775.3844 458.79224 775.3844 457.8391L775.3844 454.261L774.6188 454.261L774.6188 453.4485L775.3844 453.4485L775.3844 451.9016L776.4313 451.2766L776.4313 453.4485L777.4938 453.4485L777.4938 454.261L776.4313 454.261L776.4313 457.9016Q776.4313 458.35474 776.47815 458.47974Q776.54065 458.60474 776.66565 458.68286Q776.79065 458.761 777.025 458.761Q777.2125 458.761 777.4938 458.72974ZM778.1969 452.29224L778.1969 451.0735L779.2594 451.0735L779.2594 452.29224L778.1969 452.29224ZM778.1969 459.66724L778.1969 453.4485L779.2594 453.4485L779.2594 459.66724L778.1969 459.66724ZM780.8063 456.55786Q780.8063 454.8235 781.7594 453.99536Q782.5563 453.30786 783.7125 453.30786Q784.9938 453.30786 785.8063 454.1516Q786.6344 454.97974 786.6344 456.4641Q786.6344 457.66724 786.275 458.35474Q785.91565 459.04224 785.2125 459.43286Q784.525 459.80786 783.7125 459.80786Q782.41565 459.80786 781.60315 458.97974Q780.8063 458.136 780.8063 456.55786ZM781.8844 456.55786Q781.8844 457.74536 782.4 458.3391Q782.9313 458.93286 783.7125 458.93286Q784.5094 458.93286 785.025 458.3391Q785.54065 457.74536 785.54065 456.5266Q785.54065 455.37036 785.0094 454.7766Q784.4938 454.18286 783.7125 454.18286Q782.9313 454.18286 782.4 454.7766Q781.8844 455.35474 781.8844 456.55786ZM788.1969 459.66724L788.1969 453.4485L789.1344 453.4485L789.1344 454.3235Q789.8219 453.30786 791.1188 453.30786Q791.6813 453.30786 792.15 453.511Q792.6344 453.7141 792.8688 454.04224Q793.10315 454.37036 793.1969 454.80786Q793.2438 455.10474 793.2438 455.8391L793.2438 459.66724L792.1969 459.66724L792.1969 455.886Q792.1969 455.22974 792.0719 454.91724Q791.9469 454.60474 791.6344 454.41724Q791.3219 454.2141 790.9 454.2141Q790.22815 454.2141 789.72815 454.6516Q789.2438 455.0735 789.2438 456.261L789.2438 459.66724L788.1969 459.66724ZM794.775 457.80786L795.8063 457.6516Q795.9 458.2766 796.29065 458.60474Q796.6969 458.93286 797.4313 458.93286Q798.15 458.93286 798.4938 458.6516Q798.85315 458.35474 798.85315 457.9485Q798.85315 457.5891 798.54065 457.386Q798.3219 457.24536 797.4625 457.0266Q796.3063 456.72974 795.85315 456.5266Q795.41565 456.30786 795.1813 455.93286Q794.9469 455.55786 794.9469 455.0891Q794.9469 454.68286 795.1344 454.3235Q795.3219 453.9641 795.65 453.72974Q795.9 453.55786 796.3219 453.43286Q796.7438 453.30786 797.2438 453.30786Q797.9625 453.30786 798.5094 453.5266Q799.0719 453.72974 799.3375 454.0891Q799.60315 454.4485 799.6969 455.04224L798.66565 455.18286Q798.60315 454.7141 798.2594 454.4485Q797.9313 454.16724 797.3063 454.16724Q796.5875 454.16724 796.275 454.41724Q795.9625 454.6516 795.9625 454.97974Q795.9625 455.18286 796.0875 455.3391Q796.22815 455.511 796.4938 455.62036Q796.65 455.68286 797.4313 455.886Q798.5563 456.1985 798.9938 456.386Q799.4313 456.5735 799.6813 456.93286Q799.9313 457.29224 799.9313 457.8391Q799.9313 458.37036 799.6188 458.8391Q799.3219 459.29224 798.7438 459.55786Q798.16565 459.80786 797.4313 459.80786Q796.2125 459.80786 795.5719 459.30786Q794.9469 458.79224 794.775 457.80786Z" fill-rule="nonzero"/><path fill="#9e9e9e" d="M770.8688 476.66724L769.8219 476.66724L769.8219 469.9485Q769.4313 470.30786 768.8063 470.68286Q768.1969 471.04224 767.7125 471.2141L767.7125 470.1985Q768.5875 469.7766 769.2438 469.1985Q769.91565 468.60474 770.1969 468.04224L770.8688 468.04224L770.8688 476.66724ZM773.9 472.43286Q773.9 470.9016 774.2125 469.97974Q774.525 469.04224 775.1344 468.54224Q775.7594 468.04224 776.6969 468.04224Q777.3844 468.04224 777.9 468.3235Q778.4313 468.60474 778.775 469.136Q779.1188 469.6516 779.3063 470.4016Q779.4938 471.1516 779.4938 472.43286Q779.4938 473.9485 779.1813 474.87036Q778.8844 475.79224 778.2594 476.30786Q777.65 476.80786 776.6969 476.80786Q775.4625 476.80786 774.7438 475.91724Q773.9 474.85474 773.9 472.43286ZM774.97815 472.43286Q774.97815 474.54224 775.47815 475.24536Q775.97815 475.9485 776.6969 475.9485Q777.4313 475.9485 777.91565 475.24536Q778.41565 474.54224 778.41565 472.43286Q778.41565 470.30786 777.91565 469.62036Q777.4313 468.91724 776.6813 468.91724Q775.9625 468.91724 775.525 469.5266Q774.97815 470.30786 774.97815 472.43286ZM781.4625 476.66724L781.4625 475.4641L782.66565 475.4641L782.66565 476.66724Q782.66565 477.3235 782.4313 477.72974Q782.1969 478.1516 781.6969 478.37036L781.4 477.91724Q781.72815 477.7766 781.8844 477.47974Q782.04065 477.1985 782.0719 476.66724L781.4625 476.66724ZM783.9 472.43286Q783.9 470.9016 784.2125 469.97974Q784.525 469.04224 785.1344 468.54224Q785.7594 468.04224 786.6969 468.04224Q787.3844 468.04224 787.9 468.3235Q788.4313 468.60474 788.775 469.136Q789.1188 469.6516 789.3063 470.4016Q789.4938 471.1516 789.4938 472.43286Q789.4938 473.9485 789.1813 474.87036Q788.8844 475.79224 788.2594 476.30786Q787.65 476.80786 786.6969 476.80786Q785.4625 476.80786 784.7438 475.91724Q783.9 474.85474 783.9 472.43286ZM784.97815 472.43286Q784.97815 474.54224 785.47815 475.24536Q785.97815 475.9485 786.6969 475.9485Q787.4313 475.9485 787.91565 475.24536Q788.41565 474.54224 788.41565 472.43286Q788.41565 470.30786 787.91565 469.62036Q787.4313 468.91724 786.6813 468.91724Q785.9625 468.91724 785.525 469.5266Q784.97815 470.30786 784.97815 472.43286ZM791.10315 470.136Q791.10315 469.2141 791.5563 468.5735Q792.025 467.93286 792.9 467.93286Q793.7125 467.93286 794.2438 468.511Q794.775 469.0891 794.775 470.1985Q794.775 471.29224 794.22815 471.886Q793.6969 472.4641 792.91565 472.4641Q792.1344 472.4641 791.6188 471.886Q791.10315 471.30786 791.10315 470.136ZM792.9313 468.6516Q792.54065 468.6516 792.275 468.99536Q792.025 469.3391 792.025 470.24536Q792.025 471.0735 792.275 471.41724Q792.54065 471.74536 792.9313 471.74536Q793.3375 471.74536 793.5875 471.4016Q793.85315 471.05786 793.85315 470.16724Q793.85315 469.3235 793.5875 468.99536Q793.3219 468.6516 792.9313 468.6516ZM792.9313 476.97974L797.6344 467.93286L798.4938 467.93286L793.8063 476.97974L792.9313 476.97974ZM796.65 474.6516Q796.65 473.72974 797.10315 473.0891Q797.5719 472.4485 798.4625 472.4485Q799.275 472.4485 799.8063 473.0266Q800.3375 473.5891 800.3375 474.7141Q800.3375 475.80786 799.79065 476.4016Q799.2594 476.97974 798.4625 476.97974Q797.6969 476.97974 797.16565 476.4016Q796.65 475.8235 796.65 474.6516ZM798.4938 473.16724Q798.0875 473.16724 797.8219 473.511Q797.5719 473.85474 797.5719 474.761Q797.5719 475.5735 797.8375 475.91724Q798.10315 476.261 798.4938 476.261Q798.8844 476.261 799.15 475.91724Q799.41565 475.5735 799.41565 474.66724Q799.41565 473.8391 799.15 473.511Q798.8844 473.16724 798.4938 473.16724Z" fill-rule="nonzero"/><path stroke="#757575" stroke-width="1.0" stroke-linecap="butt" d="M801.4 464.16724L649.9 464.16724L481.13763 464.16724" fill-rule="nonzero"/><path fill="#9e9e9e" d="M483.13763 464.16724C483.13763 463.06268 482.24222 462.16724 481.13763 462.16724C480.03308 462.16724 479.13763 463.06268 479.13763 464.16724C479.13763 465.27182 480.03308 466.16724 481.13763 466.16724C482.24222 466.16724 483.13763 465.27182 483.13763 464.16724" fill-rule="nonzero"/></svg>